<?xml version="1.0" encoding="UTF-8"?>
<svg id="Layer_2" data-name="Layer 2" xmlns="http://www.w3.org/2000/svg" viewBox="0 0 990.87 121.62">
  <defs>
    <style>
      .cls-1 {
        fill-rule: evenodd;
      }

      .cls-1, .cls-2 {
        fill: #000000;
      }
    </style>
  </defs>
  <g id="Layer_1-2" data-name="Layer 1">
    <g>
      <path class="cls-2" d="M306.47,119.55c-1.93,0-3.1-.82-3.5-2.44l-3.81-14.77h-24.37c-1.22,0-2.08-.33-2.59-.99-.51-.66-.56-1.55-.15-2.66l5.63-20.56c.61-1.93,1.78-2.9,3.5-2.9h10.96l-6.09-23.6c-.4-1.22-.35-2.64.15-4.26l10.96-39.74c.41-1.42,1.07-2.14,1.98-2.14s1.62.71,2.13,2.14l34.72,108.43c1.02,2.33.25,3.5-2.28,3.5h-27.26Z"/>
      <path class="cls-2" d="M262.31,117.11c-.61,1.62-1.88,2.44-3.81,2.44h-26.19c-1.22,0-2.06-.33-2.51-.99-.46-.66-.43-1.55.08-2.67L265.81,2.44c.61-1.62,1.83-2.44,3.65-2.44h21.47c2.33,0,3.2,1.22,2.59,3.65l-31.22,113.46Z"/>
      <path class="cls-1" d="M43.43,1.83H0v117.72h29.64v-46.02h11.43c16.43,0,28.76-3.02,36.94-9.08,8.19-6.06,12.29-15.23,12.29-27.43s-3.82-20.75-11.49-26.52C71.15,4.73,59.38,1.83,43.43,1.83M151.74,1.83h-29.47v117.72h80.15v-22.75h-50.67V1.83ZM459.91,1.83h-108.93v21.89h38.95v95.83h31.02V23.72h38.95V1.83ZM519.24,1.83h-30.33v117.72h30.33V1.83ZM676.44,1.83h-29.13v70.18L584.2,1.83h-25.82v117.72h29.13V45.58l65.87,73.97h23.07V1.83ZM825.37,1.83h-29.47v66.21c0,9.43-2.21,16.6-6.64,21.52-4.42,4.93-10.89,7.41-19.36,7.41s-15.03-2.47-19.51-7.44c-4.48-4.96-6.72-12.12-6.72-21.49V1.83h-29.65v67.39c0,16.49,4.88,29.33,14.68,38.55,9.8,9.22,23.44,13.85,40.96,13.85s31.23-4.63,41.02-13.85c9.8-9.22,14.68-22.06,14.68-38.55V1.83ZM990.87,119.55V1.83h-26l-37.95,47.4L889.15,1.83h-26v117.72h29.13V46.7l34.64,43.04,34.99-43.04v72.85h28.96ZM43.61,50.6c5.54,0,9.65-1.12,12.35-3.33,2.67-2.21,4.02-5.57,4.02-10.11s-1.41-7.64-4.19-9.97c-2.81-2.33-6.81-3.48-12.04-3.48h-14.11v26.89h13.96Z"/>
    </g>
  </g>
</svg>