<?xml version="1.0" encoding="UTF-8"?>
<svg id="Layer_2" data-name="Layer 2" xmlns="http://www.w3.org/2000/svg" viewBox="0 0 1233.15 268.66">
  <defs>
    <style>
      .cls-1 {
        fill-rule: evenodd;
      }

      .cls-1, .cls-2 {
        fill: #fff;
      }

      .cls-3 {
        fill: #c5c6c6;
      }

      .cls-4 {
        fill: #73869f;
      }
    </style>
  </defs>
  <g id="Layer_1-2" data-name="Layer 1">
    <g>
      <path class="cls-2" d="M306.47,119.55c-1.93,0-3.1-.82-3.5-2.44l-3.81-14.77h-24.37c-1.22,0-2.08-.33-2.59-.99-.51-.66-.56-1.55-.15-2.66l5.63-20.56c.61-1.93,1.78-2.9,3.5-2.9h10.96l-6.09-23.6c-.4-1.22-.35-2.64.15-4.26l10.96-39.74c.41-1.42,1.07-2.14,1.98-2.14s1.62.71,2.13,2.14l34.72,108.43c1.02,2.33.25,3.5-2.28,3.5h-27.26Z"/>
      <path class="cls-2" d="M262.31,117.11c-.61,1.62-1.88,2.44-3.81,2.44h-26.19c-1.22,0-2.06-.33-2.51-.99-.46-.66-.43-1.55.08-2.67L265.81,2.44c.61-1.62,1.83-2.44,3.65-2.44h21.47c2.33,0,3.2,1.22,2.59,3.65l-31.22,113.46Z"/>
      <path class="cls-1" d="M43.43,1.83H0v117.72h29.64v-46.02h11.43c16.43,0,28.76-3.02,36.94-9.08,8.19-6.06,12.29-15.23,12.29-27.43s-3.82-20.75-11.49-26.52C71.15,4.73,59.38,1.83,43.43,1.83M151.74,1.83h-29.47v117.72h80.15v-22.75h-50.67V1.83ZM459.91,1.83h-108.93v21.89h38.95v95.83h31.02V23.72h38.95V1.83ZM519.24,1.83h-30.33v117.72h30.33V1.83ZM676.44,1.83h-29.13v70.18L584.2,1.83h-25.82v117.72h29.13V45.58l65.87,73.97h23.07V1.83ZM825.37,1.83h-29.47v66.21c0,9.43-2.21,16.6-6.64,21.52-4.42,4.93-10.89,7.41-19.36,7.41s-15.03-2.47-19.51-7.44c-4.48-4.96-6.72-12.12-6.72-21.49V1.83h-29.65v67.39c0,16.49,4.88,29.33,14.68,38.55,9.8,9.22,23.44,13.85,40.96,13.85s31.23-4.63,41.02-13.85c9.8-9.22,14.68-22.06,14.68-38.55V1.83ZM990.87,119.55V1.83h-26l-37.95,47.4L889.15,1.83h-26v117.72h29.13V46.7l34.64,43.04,34.99-43.04v72.85h28.96ZM43.61,50.6c5.54,0,9.65-1.12,12.35-3.33,2.67-2.21,4.02-5.57,4.02-10.11s-1.41-7.64-4.19-9.97c-2.81-2.33-6.81-3.48-12.04-3.48h-14.11v26.89h13.96Z"/>
      <path class="cls-2" d="M625.27,234.98l7.52-5.03c1.42,2.71,3.2,4.74,5.38,6.1,2.16,1.36,4.73,2.04,7.68,2.04s5.21-.71,6.99-2.12c1.78-1.42,2.66-3.29,2.66-5.61,0-1.78-.61-3.28-1.82-4.48-1.22-1.19-3.31-2.3-6.26-3.3l-1.45-.51c-12.48-4.29-18.72-9.69-18.72-16.16,0-4.56,1.69-8.29,5.04-11.16,3.37-2.89,7.73-4.33,13.12-4.33,4.46,0,8.27.88,11.45,2.67,3.18,1.78,5.46,4.28,6.84,7.54l-7.1,4.38c-1.05-2.35-2.6-4.17-4.63-5.44-2.05-1.28-4.4-1.91-7.1-1.91s-4.69.73-6.32,2.16c-1.63,1.43-2.43,3.27-2.43,5.53,0,3.14,3.41,5.78,10.2,7.91,1.28.42,2.3.73,3.04.96,5.55,1.8,9.44,3.84,11.62,6.15,2.18,2.29,3.27,5.32,3.27,9.11,0,4.84-1.72,8.79-5.19,11.79-3.45,3-7.97,4.52-13.54,4.52-4.79,0-8.85-.9-12.2-2.7-3.33-1.78-6.03-4.5-8.04-8.11M578.49,234.98l7.52-5.03c1.42,2.71,3.2,4.74,5.38,6.1,2.16,1.36,4.73,2.04,7.68,2.04s5.21-.71,6.99-2.12c1.78-1.42,2.66-3.29,2.66-5.61,0-1.78-.61-3.28-1.82-4.48-1.22-1.19-3.31-2.3-6.26-3.3l-1.45-.51c-12.48-4.29-18.72-9.69-18.72-16.16,0-4.56,1.68-8.29,5.04-11.16,3.37-2.89,7.73-4.33,13.12-4.33,4.46,0,8.27.88,11.45,2.67,3.18,1.78,5.46,4.28,6.84,7.54l-7.1,4.38c-1.05-2.35-2.6-4.17-4.63-5.44-2.05-1.28-4.4-1.91-7.1-1.91s-4.69.73-6.32,2.16c-1.63,1.43-2.43,3.27-2.43,5.53,0,3.14,3.41,5.78,10.2,7.91,1.28.42,2.3.73,3.04.96,5.55,1.8,9.44,3.84,11.62,6.15,2.18,2.29,3.27,5.32,3.27,9.11,0,4.84-1.72,8.79-5.19,11.79-3.45,3-7.96,4.52-13.53,4.52-4.79,0-8.85-.9-12.2-2.7-3.33-1.78-6.03-4.5-8.04-8.11ZM570.68,219.26h-40.67v.79c0,5.49,1.57,9.94,4.71,13.32,3.14,3.39,7.24,5.08,12.29,5.08,3.43,0,6.55-.92,9.3-2.78,2.78-1.84,5.23-4.64,7.35-8.37l6.66,4.48c-2.56,4.64-5.86,8.14-9.86,10.49-4,2.35-8.63,3.52-13.92,3.52-7.81,0-14.13-2.58-18.95-7.74-4.83-5.17-7.24-11.94-7.24-20.31s2.39-14.62,7.18-19.76c4.79-5.11,10.93-7.68,18.46-7.68s13.59,2.43,18.04,7.29c4.42,4.87,6.64,11.51,6.64,19.92v1.74ZM561.26,212.13c-.31-4.51-1.8-8-4.52-10.44-2.7-2.45-6.41-3.68-11.12-3.68-4.27,0-7.83,1.28-10.66,3.85-2.85,2.54-4.5,5.97-4.94,10.27h31.25ZM484.64,243.61v-51.35h7.83v10.7c2.36-4.46,4.86-7.64,7.52-9.56,2.66-1.91,5.9-2.87,9.71-2.87,1.05,0,2.07.08,3.04.25.96.17,1.93.41,2.91.74l-2.91,7.96c-1.01-.35-1.97-.6-2.87-.77-.9-.17-1.76-.25-2.59-.25-4.63,0-8.12,1.67-10.43,5.01-2.32,3.36-3.48,8.39-3.48,15.11v25.01h-8.73ZM418.84,268.66v-76.39h8.39v9.69c1.99-3.72,4.61-6.57,7.85-8.54,3.25-1.99,6.89-2.99,10.89-2.99,7.41,0,13.34,2.53,17.82,7.58,4.5,5.04,6.74,11.74,6.74,20.06s-2.2,15.25-6.59,20.24c-4.4,4.99-10.28,7.48-17.65,7.48-4.21,0-7.91-.96-11.05-2.88-3.14-1.92-5.69-4.79-7.68-8.58v34.33h-8.73ZM427.34,218.11c0,5.76,1.59,10.37,4.77,13.87,3.18,3.46,7.39,5.21,12.63,5.21s9.15-1.59,12.08-4.77c2.93-3.18,4.4-7.58,4.4-13.23,0-6.32-1.47-11.28-4.4-14.88-2.93-3.58-7.03-5.38-12.25-5.38s-9.55,1.7-12.64,5.11c-3.06,3.39-4.59,8.08-4.59,14.07ZM367.17,192.26v50.45c0,5.57-.38,9.53-1.13,11.91-.75,2.36-1.97,4.46-3.7,6.34-2.39,2.58-5.32,4.52-8.79,5.78-3.45,1.28-7.43,1.92-11.91,1.92-7.79,0-13.84-1.78-18.21-5.35-4.37-3.56-6.62-8.6-6.81-15.1h9.88v.67c0,3.87,1.32,6.83,3.98,8.94,2.66,2.09,6.41,3.14,11.28,3.14,3.52,0,6.53-.58,9.02-1.71,2.49-1.14,4.38-2.85,5.68-5.09.79-1.27,1.36-2.75,1.69-4.44.34-1.68.52-4.1.52-7.23v-8.62c-1.99,3.66-4.6,6.45-7.79,8.43-3.22,1.95-6.84,2.93-10.84,2.93-7.37,0-13.31-2.51-17.8-7.52-4.5-5-6.76-11.67-6.76-19.95s2.18-15.03,6.57-19.95c4.37-4.92,10.22-7.37,17.56-7.37,4.25,0,8,.96,11.22,2.9,3.22,1.93,5.74,4.78,7.62,8.52v-9.57h8.73ZM358.67,218.11c0-5.76-1.57-10.4-4.71-13.92-3.16-3.51-7.27-5.27-12.41-5.27s-9.38,1.63-12.35,4.88c-2.95,3.25-4.42,7.79-4.42,13.63,0,6.2,1.49,10.99,4.46,14.34,2.97,3.37,7.18,5.05,12.65,5.05s9.34-1.65,12.31-4.96c2.97-3.31,4.46-7.91,4.46-13.76ZM255.38,243.61v-51.35h8.62v7.93c2.2-3.29,4.86-5.74,7.96-7.35,3.1-1.61,6.7-2.41,10.76-2.41,6.07,0,10.8,1.61,14.19,4.83,3.41,3.22,5.11,7.7,5.11,13.42v34.94h-8.96v-30.23c0-5.21-1.09-9.06-3.27-11.59-2.2-2.53-5.57-3.79-10.13-3.79-2.62,0-5.02.48-7.16,1.44-2.14.95-3.92,2.29-5.36,4.05-1.07,1.34-1.86,2.9-2.32,4.6-.48,1.73-.71,4.71-.71,8.98v26.54h-8.73ZM228.02,243.61v-51.35h8.85v51.35h-8.85ZM225.95,167.53c0-1.75.63-3.26,1.88-4.52,1.26-1.24,2.8-1.87,4.6-1.87s3.26.63,4.52,1.91c1.24,1.26,1.88,2.79,1.88,4.59s-.61,3.27-1.86,4.5c-1.22,1.25-2.76,1.86-4.54,1.86s-3.33-.61-4.6-1.86c-1.24-1.22-1.88-2.77-1.88-4.61ZM199.21,199.5h-9.42v-7.24h9.42v-20.67h8.96v20.67h9.42v7.24h-9.42v44.11h-8.96v-44.11ZM133.82,243.61v-51.35h8.62v7.93c2.2-3.29,4.86-5.74,7.97-7.35,3.1-1.61,6.7-2.41,10.76-2.41,6.07,0,10.8,1.61,14.19,4.83,3.41,3.22,5.11,7.7,5.11,13.42v34.94h-8.96v-30.23c0-5.21-1.09-9.06-3.27-11.59-2.2-2.53-5.57-3.79-10.13-3.79-2.62,0-5.02.48-7.16,1.44-2.14.95-3.92,2.29-5.36,4.05-1.07,1.34-1.86,2.9-2.32,4.6-.48,1.73-.71,4.71-.71,8.98v26.54h-8.73ZM106.47,243.61v-51.35h8.85v51.35h-8.85ZM104.4,167.53c0-1.75.63-3.26,1.88-4.52,1.26-1.24,2.8-1.87,4.6-1.87s3.25.63,4.52,1.91c1.24,1.26,1.88,2.79,1.88,4.59s-.61,3.27-1.86,4.5c-1.22,1.25-2.76,1.86-4.54,1.86s-3.33-.61-4.6-1.86c-1.24-1.22-1.88-2.77-1.88-4.61ZM65.8,243.61v-51.35h7.83v10.7c2.36-4.46,4.86-7.64,7.52-9.56,2.66-1.91,5.9-2.87,9.71-2.87,1.05,0,2.07.08,3.04.25.96.17,1.93.41,2.91.74l-2.91,7.96c-1.02-.35-1.97-.6-2.87-.77-.9-.17-1.76-.25-2.58-.25-4.63,0-8.12,1.67-10.43,5.01-2.32,3.36-3.48,8.39-3.48,15.11v25.01h-8.73ZM0,268.66v-76.39h8.38v9.69c1.99-3.72,4.61-6.57,7.85-8.54,3.25-1.99,6.89-2.99,10.89-2.99,7.41,0,13.34,2.53,17.83,7.58,4.5,5.04,6.74,11.74,6.74,20.06s-2.2,15.25-6.59,20.24c-4.4,4.99-10.28,7.48-17.65,7.48-4.21,0-7.91-.96-11.05-2.88-3.14-1.92-5.69-4.79-7.68-8.58v34.33H0ZM8.5,218.11c0,5.76,1.59,10.37,4.77,13.87,3.18,3.46,7.39,5.21,12.64,5.21s9.15-1.59,12.08-4.77c2.93-3.18,4.4-7.58,4.4-13.23,0-6.32-1.47-11.28-4.4-14.88-2.93-3.58-7.03-5.38-12.25-5.38s-9.55,1.7-12.64,5.11c-3.06,3.39-4.59,8.08-4.59,14.07Z"/>
      <rect class="cls-4" x="1042.25" y="1.88" width="190.89" height="58.67"/>
      <rect class="cls-3" x="1042.25" y="60.54" width="190.89" height="59"/>
    </g>
  </g>
</svg>