<svg xmlns="http://www.w3.org/2000/svg" viewBox="0 0 1010.87 141.62">
  <defs>
    <style>
      .cls-1 { fill-rule: evenodd; }
      .cls-1, .cls-2 { fill: #000000; }
    </style>
  </defs>
  <g transform="translate(10 10)">
    <path class="cls-2"
      d="M306.47,119.55c-1.93,0-3.1-.82-3.5-2.44l-3.81-14.77h-24.37c-1.22,0-2.08-.33-2.59-.99-.51-.66-.56-1.55-.15-2.66l5.63-20.56c.61-1.93,1.78-2.9,3.5-2.9h10.96l-6.09-23.6c-.4-1.22-.35-2.64.15-4.26l10.96-39.74c.41-1.42,1.07-2.14,1.98-2.14s1.62.71,2.13,2.14l34.72,108.43c1.02,2.33.25,3.5-2.28,3.5h-27.26Z"/>
    <path class="cls-2"
      d="M262.31,117.11c-.61,1.62-1.88,2.44-3.81,2.44h-26.19c-1.22,0-2.06-.33-2.51-.99-.46-.66-.43-1.55.08-2.67L265.81,2.44c.61-1.62,1.83-2.44,3.65-2.44h21.47c2.33,0,3.2,1.22,2.59,3.65l-31.22,113.46Z"/>
  </g>
</svg>
